<svg xmlns="http://www.w3.org/2000/svg" xmlns:xlink="http://www.w3.org/1999/xlink" width="512" height="96" viewBox="0 0 512 96"><g id="Trustpilot_ratings_5star-RGB" stroke="none" stroke-width="1" fill="none" fill-rule="evenodd"><g fill-rule="nonzero"><rect id="Rectangle-path" fill="#00b67a" x="0" y="0" width="96" height="96"/><rect id="Rectangle-path" fill="#00b67a" x="104" y="0" width="96" height="96"/><rect id="Rectangle-path" fill="#00b67a" x="208" y="0" width="96" height="96"/><rect id="Rectangle-path" fill="#00b67a" x="312" y="0" width="96" height="96"/><rect id="Rectangle-path" fill="#00b67a" x="416" y="0" width="96" height="96"/><path d="M48 64.7 62.6 61l6.1 18.8L48 64.7zM81.6 40.4H55.9L48 16.2 40.1 40.4H14.4l20.8 15-7.9 24.2 20.8-15 12.8-9.2 20.7-15z" id="Shape" fill="#fff"/><path d="M152 64.7 166.6 61 172.7 79.8 152 64.7zm33.6-24.3H159.9L152 16.2 144.1 40.4H118.4l20.8 15L131.3 79.6l20.8-15 12.8-9.2 20.7-15z" id="Shape" fill="#fff"/><path d="M256 64.7 270.6 61 276.7 79.8 256 64.7zm33.6-24.3H263.9L256 16.2 248.1 40.4H222.4l20.8 15L235.3 79.6l20.8-15 12.8-9.2 20.7-15z" id="Shape" fill="#fff"/><path d="M360 64.7 374.6 61 380.7 79.8 360 64.7zm33.6-24.3H367.9L360 16.2 352.1 40.4H326.4l20.8 15L339.3 79.6l20.8-15 12.8-9.2 20.7-15z" id="Shape" fill="#fff"/><path d="M464 64.7 478.6 61 484.7 79.8 464 64.7zm33.6-24.3H471.9L464 16.2 456.1 40.4H430.4l20.8 15L443.3 79.6l20.8-15 12.8-9.2 20.7-15z" id="Shape" fill="#fff"/></g></g></svg>